# Blender 3.3.1
# www.blender.org
mtllib gun.mtl
o Cube
v -0.089628 -0.251455 0.105126
v -0.089628 0.297072 0.105126
v -0.089628 -0.251455 -0.105126
v -0.089628 0.297072 -0.525351
v 0.089628 -0.251455 0.105126
v 0.089628 0.297072 0.105126
v 0.089628 -0.251455 -0.105126
v 0.089628 0.297072 -0.525351
v -0.089628 0.180462 0.105126
v -0.089628 0.180462 -0.525351
v 0.089628 0.180462 -0.525351
v 0.089628 0.180462 0.105126
v -0.089628 0.165442 -0.105126
v 0.089628 0.165442 -0.105126
v 0.089628 0.165442 0.105126
v -0.089628 0.165442 0.105126
vn -1.0000 -0.0000 -0.0000
vn -0.0000 -0.0000 -1.0000
vn 1.0000 -0.0000 -0.0000
vn -0.0000 -0.0000 1.0000
vn -0.0000 -1.0000 -0.0000
vn -0.0000 1.0000 -0.0000
vn -0.0000 -0.9994 -0.0357
vt 0.125000 0.750000
vt 0.375000 0.000000
vt 0.375000 1.000000
vt 0.625000 0.000000
vt 0.625000 1.000000
vt 0.875000 0.750000
vt 0.125000 0.500000
vt 0.375000 0.250000
vt 0.625000 0.250000
vt 0.875000 0.500000
vt 0.375000 0.750000
vt 0.625000 0.750000
vt 0.375000 0.500000
vt 0.625000 0.500000
vt 0.598068 1.000000
vt 0.598068 0.000000
vt 0.598068 0.250000
vt 0.598068 0.500000
vt 0.598068 0.750000
vt 0.582243 0.250000
vt 0.582243 0.500000
vt 0.582243 0.750000
vt 0.582243 0.000000
vt 0.582243 1.000000
s 0
f 9/16/1 2/4/1 4/9/1 10/17/1
f 10/17/2 4/9/2 8/14/2 11/18/2
f 11/18/3 8/14/3 6/12/3 12/19/3
f 12/19/4 6/12/4 2/5/4 9/15/4
f 3/7/5 7/13/5 5/11/5 1/1/5
f 8/14/6 4/10/6 2/6/6 6/12/6
f 15/22/4 12/19/4 9/15/4 16/24/4
f 14/21/3 11/18/3 12/19/3 15/22/3
f 13/20/7 10/17/7 11/18/7 14/21/7
f 16/23/1 9/16/1 10/17/1 13/20/1
f 1/2/1 16/23/1 13/20/1 3/8/1
f 3/8/2 13/20/2 14/21/2 7/13/2
f 7/13/3 14/21/3 15/22/3 5/11/3
f 5/11/4 15/22/4 16/24/4 1/3/4
