# Blender 3.3.1
# www.blender.org
mtllib targetModelv2.mtl
o Base
v -0.485140 -0.096766 1.415865
v -0.485140 0.096766 1.415865
v -0.485140 -0.096766 -1.415865
v -0.485140 0.096766 -1.415865
v 0.485140 -0.096766 1.415865
v 0.485140 0.096766 1.415865
v 0.485140 -0.096766 -1.415865
v 0.485140 0.096766 -1.415865
vn -1.0000 -0.0000 -0.0000
vn -0.0000 -0.0000 -1.0000
vn 1.0000 -0.0000 -0.0000
vn -0.0000 -0.0000 1.0000
vn -0.0000 -1.0000 -0.0000
vn -0.0000 1.0000 -0.0000
vt 0.375000 0.000000
vt 0.375000 1.000000
vt 0.125000 0.750000
vt 0.625000 0.000000
vt 0.625000 1.000000
vt 0.875000 0.750000
vt 0.375000 0.250000
vt 0.125000 0.500000
vt 0.625000 0.250000
vt 0.875000 0.500000
vt 0.375000 0.750000
vt 0.625000 0.750000
vt 0.375000 0.500000
vt 0.625000 0.500000
s 0
f 1/1/1 2/4/1 4/9/1 3/7/1
f 3/7/2 4/9/2 8/14/2 7/13/2
f 7/13/3 8/14/3 6/12/3 5/11/3
f 5/11/4 6/12/4 2/5/4 1/2/4
f 3/8/5 7/13/5 5/11/5 1/3/5
f 8/14/6 4/10/6 2/6/6 6/12/6
o Cylinder
v -0.197180 3.044884 0.000000
v 0.197180 3.044884 -0.000000
v -0.197180 3.021024 -0.242253
v 0.197180 3.021024 -0.242253
v -0.197180 2.950361 -0.475197
v 0.197180 2.950361 -0.475197
v -0.197180 2.835611 -0.689879
v 0.197180 2.835611 -0.689879
v -0.197180 2.681184 -0.878050
v 0.197180 2.681184 -0.878050
v -0.197180 2.493013 -1.032477
v 0.197180 2.493013 -1.032477
v -0.197180 2.278331 -1.147227
v 0.197180 2.278331 -1.147227
v -0.197180 2.045388 -1.217890
v 0.197180 2.045388 -1.217890
v -0.197180 1.803134 -1.241750
v 0.197180 1.803134 -1.241750
v -0.197180 1.560881 -1.217890
v 0.197180 1.560881 -1.217890
v -0.197180 1.327937 -1.147227
v 0.197180 1.327937 -1.147227
v -0.197180 1.113255 -1.032477
v 0.197180 1.113255 -1.032477
v -0.197180 0.925085 -0.878050
v 0.197180 0.925085 -0.878050
v -0.197180 0.770657 -0.689879
v 0.197180 0.770657 -0.689879
v -0.197180 0.655907 -0.475197
v 0.197180 0.655907 -0.475197
v -0.197180 0.585245 -0.242253
v 0.197180 0.585245 -0.242253
v -0.197180 0.561385 0.000000
v 0.197180 0.561385 -0.000000
v -0.197180 0.585245 0.242253
v 0.197180 0.585245 0.242253
v -0.197180 0.655907 0.475197
v 0.197180 0.655907 0.475197
v -0.197180 0.770657 0.689879
v 0.197180 0.770657 0.689879
v -0.197180 0.925085 0.878050
v 0.197180 0.925085 0.878050
v -0.197180 1.113255 1.032477
v 0.197180 1.113255 1.032477
v -0.197180 1.327937 1.147227
v 0.197180 1.327937 1.147227
v -0.197180 1.560881 1.217890
v 0.197180 1.560881 1.217890
v -0.197180 1.803134 1.241750
v 0.197180 1.803134 1.241750
v -0.197180 2.045388 1.217890
v 0.197180 2.045388 1.217890
v -0.197180 2.278331 1.147227
v 0.197180 2.278331 1.147227
v -0.197180 2.493013 1.032477
v 0.197180 2.493013 1.032477
v -0.197180 2.681184 0.878050
v 0.197180 2.681184 0.878050
v -0.197180 2.835611 0.689879
v 0.197180 2.835611 0.689879
v -0.197180 2.950361 0.475197
v 0.197180 2.950361 0.475197
v -0.197180 3.021024 0.242253
v 0.197180 3.021024 0.242253
vn -0.0000 0.9952 -0.0980
vn -0.0000 0.9569 -0.2903
vn -0.0000 0.8819 -0.4714
vn -0.0000 0.7730 -0.6344
vn -0.0000 0.6344 -0.7730
vn -0.0000 0.4714 -0.8819
vn -0.0000 0.2903 -0.9569
vn -0.0000 0.0980 -0.9952
vn -0.0000 -0.0980 -0.9952
vn -0.0000 -0.2903 -0.9569
vn -0.0000 -0.4714 -0.8819
vn -0.0000 -0.6344 -0.7730
vn -0.0000 -0.7730 -0.6344
vn -0.0000 -0.8819 -0.4714
vn -0.0000 -0.9569 -0.2903
vn -0.0000 -0.9952 -0.0980
vn -0.0000 -0.9952 0.0980
vn -0.0000 -0.9569 0.2903
vn -0.0000 -0.8819 0.4714
vn -0.0000 -0.7730 0.6344
vn -0.0000 -0.6344 0.7730
vn -0.0000 -0.4714 0.8819
vn -0.0000 -0.2903 0.9569
vn -0.0000 -0.0980 0.9952
vn -0.0000 0.0980 0.9952
vn -0.0000 0.2903 0.9569
vn -0.0000 0.4714 0.8819
vn -0.0000 0.6344 0.7730
vn -0.0000 0.7730 0.6344
vn -0.0000 0.8819 0.4714
vn 1.0000 -0.0000 -0.0000
vn -0.0000 0.9569 0.2903
vn -0.0000 0.9952 0.0980
vn -1.0000 -0.0000 -0.0000
vt 1.000000 0.500000
vt 0.000000 0.500000
vt 0.750000 0.490000
vt 1.000000 1.000000
vt 0.250000 0.490000
vt 0.000000 1.000000
vt 0.968750 0.500000
vt 0.796822 0.485388
vt 0.968750 1.000000
vt 0.296822 0.485388
vt 0.937500 0.500000
vt 0.841844 0.471731
vt 0.937500 1.000000
vt 0.341844 0.471731
vt 0.906250 0.500000
vt 0.883337 0.449553
vt 0.906250 1.000000
vt 0.383337 0.449553
vt 0.875000 0.500000
vt 0.919706 0.419706
vt 0.875000 1.000000
vt 0.419706 0.419706
vt 0.843750 0.500000
vt 0.949553 0.383337
vt 0.843750 1.000000
vt 0.449553 0.383337
vt 0.812500 0.500000
vt 0.971731 0.341844
vt 0.812500 1.000000
vt 0.471731 0.341844
vt 0.781250 0.500000
vt 0.985388 0.296822
vt 0.781250 1.000000
vt 0.485388 0.296822
vt 0.750000 0.500000
vt 0.990000 0.250000
vt 0.750000 1.000000
vt 0.490000 0.250000
vt 0.718750 0.500000
vt 0.985388 0.203178
vt 0.718750 1.000000
vt 0.485388 0.203178
vt 0.687500 0.500000
vt 0.971731 0.158156
vt 0.687500 1.000000
vt 0.471731 0.158156
vt 0.656250 0.500000
vt 0.949553 0.116663
vt 0.656250 1.000000
vt 0.449553 0.116663
vt 0.625000 0.500000
vt 0.919706 0.080294
vt 0.625000 1.000000
vt 0.419706 0.080294
vt 0.593750 0.500000
vt 0.883337 0.050447
vt 0.593750 1.000000
vt 0.383337 0.050447
vt 0.562500 0.500000
vt 0.841844 0.028269
vt 0.562500 1.000000
vt 0.341844 0.028269
vt 0.531250 0.500000
vt 0.796822 0.014612
vt 0.531250 1.000000
vt 0.296822 0.014612
vt 0.500000 0.500000
vt 0.750000 0.010000
vt 0.500000 1.000000
vt 0.250000 0.010000
vt 0.468750 0.500000
vt 0.703178 0.014612
vt 0.468750 1.000000
vt 0.203178 0.014612
vt 0.437500 0.500000
vt 0.658156 0.028269
vt 0.437500 1.000000
vt 0.158156 0.028269
vt 0.406250 0.500000
vt 0.616663 0.050447
vt 0.406250 1.000000
vt 0.116663 0.050447
vt 0.375000 0.500000
vt 0.580294 0.080294
vt 0.375000 1.000000
vt 0.080294 0.080294
vt 0.343750 0.500000
vt 0.550447 0.116663
vt 0.343750 1.000000
vt 0.050447 0.116663
vt 0.312500 0.500000
vt 0.528269 0.158156
vt 0.312500 1.000000
vt 0.028269 0.158156
vt 0.281250 0.500000
vt 0.514612 0.203178
vt 0.281250 1.000000
vt 0.014612 0.203178
vt 0.250000 0.500000
vt 0.510000 0.250000
vt 0.250000 1.000000
vt 0.010000 0.250000
vt 0.218750 0.500000
vt 0.514612 0.296822
vt 0.218750 1.000000
vt 0.014612 0.296822
vt 0.187500 0.500000
vt 0.528269 0.341844
vt 0.187500 1.000000
vt 0.028269 0.341844
vt 0.156250 0.500000
vt 0.550447 0.383337
vt 0.156250 1.000000
vt 0.050447 0.383337
vt 0.125000 0.500000
vt 0.580294 0.419706
vt 0.125000 1.000000
vt 0.080294 0.419706
vt 0.093750 0.500000
vt 0.616663 0.449553
vt 0.093750 1.000000
vt 0.116663 0.449553
vt 0.062500 0.500000
vt 0.658156 0.471731
vt 0.158156 0.471731
vt 0.062500 1.000000
vt 0.031250 0.500000
vt 0.703178 0.485388
vt 0.203178 0.485388
vt 0.031250 1.000000
s 0
usemtl Material.001
f 9/15/7 10/18/7 12/23/7 11/21/7
f 11/21/8 12/23/8 14/27/8 13/25/8
f 13/25/9 14/27/9 16/31/9 15/29/9
f 15/29/10 16/31/10 18/35/10 17/33/10
f 17/33/11 18/35/11 20/39/11 19/37/11
f 19/37/12 20/39/12 22/43/12 21/41/12
f 21/41/13 22/43/13 24/47/13 23/45/13
f 23/45/14 24/47/14 26/51/14 25/49/14
f 25/49/15 26/51/15 28/55/15 27/53/15
f 27/53/16 28/55/16 30/59/16 29/57/16
f 29/57/17 30/59/17 32/63/17 31/61/17
f 31/61/18 32/63/18 34/67/18 33/65/18
f 33/65/19 34/67/19 36/71/19 35/69/19
f 35/69/20 36/71/20 38/75/20 37/73/20
f 37/73/21 38/75/21 40/79/21 39/77/21
f 39/77/22 40/79/22 42/83/22 41/81/22
f 41/81/23 42/83/23 44/87/23 43/85/23
f 43/85/24 44/87/24 46/91/24 45/89/24
f 45/89/25 46/91/25 48/95/25 47/93/25
f 47/93/26 48/95/26 50/99/26 49/97/26
f 49/97/27 50/99/27 52/103/27 51/101/27
f 51/101/28 52/103/28 54/107/28 53/105/28
f 53/105/29 54/107/29 56/111/29 55/109/29
f 55/109/30 56/111/30 58/115/30 57/113/30
f 57/113/31 58/115/31 60/119/31 59/117/31
f 59/117/32 60/119/32 62/123/32 61/121/32
f 61/121/33 62/123/33 64/127/33 63/125/33
f 63/125/34 64/127/34 66/131/34 65/129/34
f 65/129/35 66/131/35 68/135/35 67/133/35
f 67/133/36 68/135/36 70/140/36 69/137/36
f 12/24/37 10/19/37 72/143/37 70/139/37 68/136/37 66/132/37 64/128/37 62/124/37 60/120/37 58/116/37 56/112/37 54/108/37 52/104/37 50/100/37 48/96/37 46/92/37 44/88/37 42/84/37 40/80/37 38/76/37 36/72/37 34/68/37 32/64/37 30/60/37 28/56/37 26/52/37 24/48/37 22/44/37 20/40/37 18/36/37 16/32/37 14/28/37
f 69/137/38 70/140/38 72/144/38 71/141/38
f 71/141/39 72/144/39 10/20/39 9/16/39
f 9/17/40 11/22/40 13/26/40 15/30/40 17/34/40 19/38/40 21/42/40 23/46/40 25/50/40 27/54/40 29/58/40 31/62/40 33/66/40 35/70/40 37/74/40 39/78/40 41/82/40 43/86/40 45/90/40 47/94/40 49/98/40 51/102/40 53/106/40 55/110/40 57/114/40 59/118/40 61/122/40 63/126/40 65/130/40 67/134/40 69/138/40 71/142/40
o Cube
v -0.198492 0.586541 -0.379818
v -0.198492 0.732055 -0.507413
v 0.198492 0.586541 -0.379818
v 0.198492 0.732055 -0.507413
v -0.198492 -0.052371 -1.108452
v -0.198492 0.093142 -1.236047
v 0.198492 -0.052371 -1.108452
v 0.198492 0.093142 -1.236047
vn 1.0000 -0.0000 -0.0000
vn -0.0000 0.6593 0.7519
vn -0.0000 -0.7519 0.6593
vn -0.0000 0.7519 -0.6593
vn -1.0000 -0.0000 -0.0000
vt 0.375000 1.000000
vt 0.125000 0.750000
vt 0.375000 0.000000
vt 0.625000 1.000000
vt 0.875000 0.750000
vt 0.625000 0.000000
vt 0.375000 0.750000
vt 0.625000 0.750000
vt 0.125000 0.628865
vt 0.375000 0.121135
vt 0.875000 0.628865
vt 0.625000 0.121135
vt 0.375000 0.628865
vt 0.625000 0.628865
s 0
f 79/157/41 80/158/41 76/152/41 75/151/41
f 75/151/42 76/152/42 74/148/42 73/145/42
f 77/153/43 79/157/43 75/151/43 73/146/43
f 80/158/44 78/155/44 74/149/44 76/152/44
f 73/147/45 74/150/45 78/156/45 77/154/45
o Cube.001
v -0.198492 -0.065865 0.912350
v -0.198492 0.079648 1.039945
v 0.198492 -0.065865 0.912350
v 0.198492 0.079648 1.039945
v -0.198492 0.573049 0.183716
v -0.198492 0.718562 0.311312
v 0.198492 0.573049 0.183716
v 0.198492 0.718562 0.311312
vn 1.0000 -0.0000 -0.0000
vn -0.0000 -0.6593 0.7519
vn -0.0000 -0.7519 -0.6593
vn -0.0000 0.7519 0.6593
vn -1.0000 -0.0000 -0.0000
vt 0.375000 1.000000
vt 0.125000 0.750000
vt 0.375000 0.000000
vt 0.625000 1.000000
vt 0.875000 0.750000
vt 0.625000 0.000000
vt 0.375000 0.750000
vt 0.625000 0.750000
vt 0.125000 0.628865
vt 0.375000 0.121135
vt 0.875000 0.628865
vt 0.625000 0.121135
vt 0.375000 0.628865
vt 0.625000 0.628865
s 0
f 87/171/46 88/172/46 84/166/46 83/165/46
f 83/165/47 84/166/47 82/162/47 81/159/47
f 85/167/48 87/171/48 83/165/48 81/160/48
f 88/172/49 86/169/49 82/163/49 84/166/49
f 81/161/50 82/164/50 86/170/50 85/168/50
